<svg width="62" height="62" viewBox="0 0 62 62" fill="none" xmlns="http://www.w3.org/2000/svg">
<path d="M12.9167 43.9167H10.3334C8.96307 43.9167 7.64891 43.3723 6.67997 42.4034C5.71103 41.4344 5.16669 40.1203 5.16669 38.75V12.9167C5.16669 11.5464 5.71103 10.2322 6.67997 9.26328C7.64891 8.29434 8.96307 7.75 10.3334 7.75H51.6667C53.037 7.75 54.3511 8.29434 55.3201 9.26328C56.289 10.2322 56.8334 11.5464 56.8334 12.9167V38.75C56.8334 40.1203 56.289 41.4344 55.3201 42.4034C54.3511 43.3723 53.037 43.9167 51.6667 43.9167H49.0834" stroke="black" stroke-width="2" stroke-linecap="round" stroke-linejoin="round"/>
<path d="M31 38.75L43.9166 54.25H18.0833L31 38.75Z" stroke="black" stroke-width="2" stroke-linecap="round" stroke-linejoin="round"/>
</svg>
