<svg width="62" height="62" viewBox="0 0 62 62" fill="none" xmlns="http://www.w3.org/2000/svg">
<path d="M5.16663 7.75H20.6666C23.4072 7.75 26.0355 8.83869 27.9734 10.7766C29.9113 12.7144 31 15.3428 31 18.0833V54.25C31 52.1946 30.1834 50.2233 28.73 48.7699C27.2766 47.3165 25.3054 46.5 23.25 46.5H5.16663V7.75Z" stroke="black" stroke-width="2" stroke-linecap="round" stroke-linejoin="round"/>
<path d="M56.8333 7.75H41.3333C38.5928 7.75 35.9644 8.83869 34.0266 10.7766C32.0887 12.7144 31 15.3428 31 18.0833V54.25C31 52.1946 31.8165 50.2233 33.2699 48.7699C34.7233 47.3165 36.6946 46.5 38.75 46.5H56.8333V7.75Z" stroke="black" stroke-width="2" stroke-linecap="round" stroke-linejoin="round"/>
</svg>
