<svg width="55" height="55" viewBox="0 0 55 55" fill="none" xmlns="http://www.w3.org/2000/svg">
<path d="M38.9584 48.125V43.5417C38.9584 41.1105 37.9926 38.7789 36.2735 37.0599C34.5544 35.3408 32.2228 34.375 29.7917 34.375H11.4584C9.0272 34.375 6.69563 35.3408 4.97654 37.0599C3.25746 38.7789 2.29169 41.1105 2.29169 43.5417V48.125" stroke="black" stroke-width="2" stroke-linecap="round" stroke-linejoin="round"/>
<path d="M20.625 25.2083C25.6876 25.2083 29.7916 21.1043 29.7916 16.0417C29.7916 10.9791 25.6876 6.875 20.625 6.875C15.5624 6.875 11.4583 10.9791 11.4583 16.0417C11.4583 21.1043 15.5624 25.2083 20.625 25.2083Z" stroke="black" stroke-width="2" stroke-linecap="round" stroke-linejoin="round"/>
<path d="M52.7083 48.125V43.5417C52.7068 41.5106 52.0308 39.5376 50.7864 37.9324C49.5421 36.3272 47.7999 35.1807 45.8333 34.6729" stroke="black" stroke-width="2" stroke-linecap="round" stroke-linejoin="round"/>
<path d="M36.6667 7.17292C38.6385 7.67777 40.3861 8.82452 41.6342 10.4324C42.8822 12.0402 43.5597 14.0177 43.5597 16.0531C43.5597 18.0885 42.8822 20.066 41.6342 21.6739C40.3861 23.2817 38.6385 24.4285 36.6667 24.9333" stroke="black" stroke-width="2" stroke-linecap="round" stroke-linejoin="round"/>
</svg>
