<svg width="20" height="21" viewBox="0 0 20 21" fill="none" xmlns="http://www.w3.org/2000/svg">
<path d="M14.1667 2.16675H5.83341C3.53223 2.16675 1.66675 4.03223 1.66675 6.33341V14.6667C1.66675 16.9679 3.53223 18.8334 5.83341 18.8334H14.1667C16.4679 18.8334 18.3334 16.9679 18.3334 14.6667V6.33341C18.3334 4.03223 16.4679 2.16675 14.1667 2.16675Z" stroke="#221638" stroke-width="1.5" stroke-linecap="round" stroke-linejoin="round"/>
<path d="M13.3333 9.97501C13.4361 10.6685 13.3176 11.3769 12.9947 11.9992C12.6718 12.6215 12.1609 13.1262 11.5346 13.4414C10.9083 13.7566 10.1986 13.8663 9.50641 13.755C8.81419 13.6436 8.17472 13.3167 7.67895 12.821C7.18318 12.3252 6.85636 11.6857 6.74497 10.9935C6.63359 10.3013 6.74331 9.59159 7.05852 8.96532C7.37374 8.33905 7.87841 7.82812 8.50074 7.50521C9.12307 7.18229 9.83138 7.06383 10.5249 7.16667C11.2324 7.27158 11.8873 7.60123 12.393 8.10693C12.8987 8.61263 13.2283 9.26757 13.3333 9.97501Z" stroke="#221638" stroke-width="1.5" stroke-linecap="round" stroke-linejoin="round"/>
<path d="M14.5833 5.91675H14.5933" stroke="#221638" stroke-width="1.5" stroke-linecap="round" stroke-linejoin="round"/>
</svg>
