<svg width="55" height="55" viewBox="0 0 55 55" fill="none" xmlns="http://www.w3.org/2000/svg">
<path d="M27.5 50.4167C40.1565 50.4167 50.4167 40.1565 50.4167 27.5C50.4167 14.8435 40.1565 4.58334 27.5 4.58334C14.8435 4.58334 4.58334 14.8435 4.58334 27.5C4.58334 40.1565 14.8435 50.4167 27.5 50.4167Z" stroke="#1C1C1C" stroke-width="2" stroke-linecap="round" stroke-linejoin="round"/>
<path d="M27.5 36.6667C32.5626 36.6667 36.6667 32.5626 36.6667 27.5C36.6667 22.4374 32.5626 18.3333 27.5 18.3333C22.4374 18.3333 18.3333 22.4374 18.3333 27.5C18.3333 32.5626 22.4374 36.6667 27.5 36.6667Z" stroke="#1C1C1C" stroke-width="2" stroke-linecap="round" stroke-linejoin="round"/>
<path d="M11.2979 11.2979L21.0146 21.0146" stroke="#1C1C1C" stroke-width="2" stroke-linecap="round" stroke-linejoin="round"/>
<path d="M33.9854 33.9854L43.7021 43.7021" stroke="#1C1C1C" stroke-width="2" stroke-linecap="round" stroke-linejoin="round"/>
<path d="M33.9854 21.0146L43.7021 11.2979" stroke="#1C1C1C" stroke-width="2" stroke-linecap="round" stroke-linejoin="round"/>
<path d="M33.9854 21.0146L42.075 12.925" stroke="#1C1C1C" stroke-width="2" stroke-linecap="round" stroke-linejoin="round"/>
<path d="M11.2979 43.7021L21.0146 33.9854" stroke="#1C1C1C" stroke-width="2" stroke-linecap="round" stroke-linejoin="round"/>
</svg>
