<svg width="20" height="21" viewBox="0 0 20 21" fill="none" xmlns="http://www.w3.org/2000/svg">
<path d="M13.3333 7.16675C14.6593 7.16675 15.9311 7.69353 16.8688 8.63121C17.8065 9.5689 18.3333 10.8407 18.3333 12.1667V18.0001H14.9999V12.1667C14.9999 11.7247 14.8243 11.3008 14.5118 10.9882C14.1992 10.6757 13.7753 10.5001 13.3333 10.5001C12.8912 10.5001 12.4673 10.6757 12.1547 10.9882C11.8422 11.3008 11.6666 11.7247 11.6666 12.1667V18.0001H8.33325V12.1667C8.33325 10.8407 8.86004 9.5689 9.79772 8.63121C10.7354 7.69353 12.0072 7.16675 13.3333 7.16675V7.16675Z" stroke="#221638" stroke-width="1.5" stroke-linecap="round" stroke-linejoin="round"/>
<path d="M5.00008 8H1.66675V18H5.00008V8Z" stroke="#221638" stroke-width="1.5" stroke-linecap="round" stroke-linejoin="round"/>
<path d="M3.33341 5.50008C4.25389 5.50008 5.00008 4.75389 5.00008 3.83341C5.00008 2.91294 4.25389 2.16675 3.33341 2.16675C2.41294 2.16675 1.66675 2.91294 1.66675 3.83341C1.66675 4.75389 2.41294 5.50008 3.33341 5.50008Z" stroke="#221638" stroke-width="1.5" stroke-linecap="round" stroke-linejoin="round"/>
</svg>
