<svg width="55" height="55" viewBox="0 0 55 55" fill="none" xmlns="http://www.w3.org/2000/svg">
<path d="M49.8438 3.4375H36.0938C33.2471 3.4375 30.9375 5.74707 30.9375 8.59375V22.3438C30.9375 25.1904 33.2471 27.5 36.0938 27.5H44.6875V34.375C44.6875 38.167 41.6045 41.25 37.8125 41.25H36.9531C35.5244 41.25 34.375 42.3994 34.375 43.8281V48.9844C34.375 50.4131 35.5244 51.5625 36.9531 51.5625H37.8125C47.3086 51.5625 55 43.8711 55 34.375V8.59375C55 5.74707 52.6904 3.4375 49.8438 3.4375ZM18.9062 3.4375H5.15625C2.30957 3.4375 0 5.74707 0 8.59375V22.3438C0 25.1904 2.30957 27.5 5.15625 27.5H13.75V34.375C13.75 38.167 10.667 41.25 6.875 41.25H6.01562C4.58691 41.25 3.4375 42.3994 3.4375 43.8281V48.9844C3.4375 50.4131 4.58691 51.5625 6.01562 51.5625H6.875C16.3711 51.5625 24.0625 43.8711 24.0625 34.375V8.59375C24.0625 5.74707 21.7529 3.4375 18.9062 3.4375Z" fill="#D2CCCC" fill-opacity="0.5"/>
</svg>
