<svg width="55" height="55" viewBox="0 0 55 55" fill="none" xmlns="http://www.w3.org/2000/svg">
<g clip-path="url(#clip0_832_160)">
<path d="M50.8438 27.5H42.25V20.625C42.25 16.833 45.333 13.75 49.125 13.75H49.9844C51.4131 13.75 52.5625 12.6006 52.5625 11.1719V6.01562C52.5625 4.58691 51.4131 3.4375 49.9844 3.4375H49.125C39.6289 3.4375 31.9375 11.1289 31.9375 20.625V46.4062C31.9375 49.2529 34.2471 51.5625 37.0938 51.5625H50.8438C53.6904 51.5625 56 49.2529 56 46.4062V32.6562C56 29.8096 53.6904 27.5 50.8438 27.5ZM19.9062 27.5H11.3125V20.625C11.3125 16.833 14.3955 13.75 18.1875 13.75H19.0469C20.4756 13.75 21.625 12.6006 21.625 11.1719V6.01562C21.625 4.58691 20.4756 3.4375 19.0469 3.4375H18.1875C8.69141 3.4375 1 11.1289 1 20.625V46.4062C1 49.2529 3.30957 51.5625 6.15625 51.5625H19.9062C22.7529 51.5625 25.0625 49.2529 25.0625 46.4062V32.6562C25.0625 29.8096 22.7529 27.5 19.9062 27.5Z" fill="#D2CCCC" fill-opacity="0.65"/>
</g>
<defs>
<clipPath id="clip0_832_160">
<rect width="55" height="55" fill="white"/>
</clipPath>
</defs>
</svg>
