<svg width="40" height="40" viewBox="0 0 40 40" fill="none" xmlns="http://www.w3.org/2000/svg">
<path d="M20 15C22.7614 15 25 17.2386 25 20C25 22.7614 22.7614 25 20 25C17.2386 25 15 22.7614 15 20C15 17.2386 17.2386 15 20 15Z" stroke="black" stroke-width="2" stroke-linecap="round" stroke-linejoin="round"/>
<path d="M32.3333 15C32.1114 14.4973 32.0453 13.9397 32.1433 13.3991C32.2413 12.8584 32.4991 12.3595 32.8833 11.9667L32.9833 11.8667C33.2932 11.5571 33.5391 11.1895 33.7068 10.7848C33.8746 10.3802 33.9609 9.94642 33.9609 9.50837C33.9609 9.07032 33.8746 8.63657 33.7068 8.2319C33.5391 7.82724 33.2932 7.45962 32.9833 7.15004C32.6737 6.84012 32.3061 6.59425 31.9014 6.42651C31.4968 6.25876 31.063 6.17242 30.625 6.17242C30.1869 6.17242 29.7532 6.25876 29.3485 6.42651C28.9438 6.59425 28.5762 6.84012 28.2666 7.15004L28.1666 7.25004C27.7738 7.63427 27.2749 7.89202 26.7343 7.99005C26.1936 8.08808 25.636 8.0219 25.1333 7.80004C24.6403 7.58877 24.2199 7.23796 23.9238 6.79081C23.6277 6.34366 23.4688 5.81968 23.4666 5.28337V5.00004C23.4666 4.11598 23.1154 3.26814 22.4903 2.64302C21.8652 2.0179 21.0173 1.66671 20.1333 1.66671C19.2492 1.66671 18.4014 2.0179 17.7763 2.64302C17.1512 3.26814 16.8 4.11598 16.8 5.00004V5.15004C16.7871 5.7017 16.6085 6.23671 16.2875 6.68554C15.9665 7.13436 15.5179 7.47623 15 7.66671C14.4973 7.88857 13.9396 7.95474 13.399 7.85671C12.8583 7.75868 12.3594 7.50093 11.9666 7.11671L11.8666 7.0167C11.557 6.70678 11.1894 6.46092 10.7848 6.29317C10.3801 6.12543 9.94634 6.03908 9.50829 6.03908C9.07024 6.03908 8.63649 6.12543 8.23183 6.29317C7.82716 6.46092 7.45954 6.70678 7.14996 7.0167C6.84004 7.32628 6.59417 7.69391 6.42643 8.09857C6.25868 8.50323 6.17234 8.93699 6.17234 9.37504C6.17234 9.81309 6.25868 10.2468 6.42643 10.6515C6.59417 11.0562 6.84004 11.4238 7.14996 11.7334L7.24996 11.8334C7.63419 12.2262 7.89194 12.7251 7.98997 13.2657C8.088 13.8064 8.02182 14.364 7.79996 14.8667C7.58869 15.3597 7.23789 15.7801 6.79074 16.0762C6.34358 16.3723 5.8196 16.5312 5.28329 16.5334H4.99996C4.1159 16.5334 3.26806 16.8846 2.64294 17.5097C2.01782 18.1348 1.66663 18.9827 1.66663 19.8667C1.66663 20.7508 2.01782 21.5986 2.64294 22.2237C3.26806 22.8488 4.1159 23.2 4.99996 23.2H5.14996C5.70162 23.2129 6.23663 23.3915 6.68546 23.7125C7.13428 24.0335 7.47615 24.4821 7.66663 25C7.88848 25.5027 7.95467 26.0604 7.85663 26.601C7.7586 27.1417 7.50085 27.6406 7.11663 28.0334L7.01663 28.1334C6.7067 28.443 6.46084 28.8106 6.29309 29.2152C6.12535 29.6199 6.039 30.0537 6.039 30.4917C6.039 30.9298 6.12535 31.3635 6.29309 31.7682C6.46084 32.1728 6.7067 32.5405 7.01663 32.85C7.3262 33.16 7.69383 33.4058 8.09849 33.5736C8.50315 33.7413 8.93691 33.8277 9.37496 33.8277C9.81301 33.8277 10.2468 33.7413 10.6514 33.5736C11.0561 33.4058 11.4237 33.16 11.7333 32.85L11.8333 32.75C12.2261 32.3658 12.725 32.1081 13.2656 32.01C13.8063 31.912 14.3639 31.9782 14.8666 32.2H15C15.4929 32.4113 15.9133 32.7621 16.2094 33.2093C16.5056 33.6564 16.6645 34.1804 16.6666 34.7167V35C16.6666 35.8841 17.0178 36.7319 17.6429 37.3571C18.2681 37.9822 19.1159 38.3334 20 38.3334C20.884 38.3334 21.7319 37.9822 22.357 37.3571C22.9821 36.7319 23.3333 35.8841 23.3333 35V34.85C23.3354 34.3137 23.4943 33.7897 23.7905 33.3426C24.0866 32.8954 24.507 32.5446 25 32.3334C25.5027 32.1115 26.0603 32.0453 26.6009 32.1434C27.1416 32.2414 27.6405 32.4991 28.0333 32.8834L28.1333 32.9834C28.4429 33.2933 28.8105 33.5392 29.2152 33.7069C29.6198 33.8747 30.0536 33.961 30.4916 33.961C30.9297 33.961 31.3634 33.8747 31.7681 33.7069C32.1728 33.5392 32.5404 33.2933 32.85 32.9834C33.1599 32.6738 33.4057 32.3062 33.5735 31.9015C33.7412 31.4968 33.8276 31.0631 33.8276 30.625C33.8276 30.187 33.7412 29.7532 33.5735 29.3486C33.4057 28.9439 33.1599 28.5763 32.85 28.2667L32.75 28.1667C32.3657 27.7739 32.108 27.275 32.01 26.7344C31.9119 26.1937 31.9781 25.6361 32.2 25.1334V25C32.4112 24.5071 32.762 24.0867 33.2092 23.7906C33.6563 23.4944 34.1803 23.3355 34.7166 23.3334H35C35.884 23.3334 36.7319 22.9822 37.357 22.3571C37.9821 21.7319 38.3333 20.8841 38.3333 20C38.3333 19.116 37.9821 18.2681 37.357 17.643C36.7319 17.0179 35.884 16.6667 35 16.6667H34.85C34.3136 16.6646 33.7897 16.5057 33.3425 16.2095C32.8954 15.9134 32.5446 15.493 32.3333 15V15Z" stroke="black" stroke-width="2" stroke-linecap="round" stroke-linejoin="round"/>
</svg>
