<svg width="55" height="55" viewBox="0 0 55 55" fill="none" xmlns="http://www.w3.org/2000/svg">
<path d="M11.4584 38.9583H9.16671C7.95113 38.9583 6.78534 38.4754 5.9258 37.6159C5.06626 36.7564 4.58337 35.5906 4.58337 34.375V11.4583C4.58337 10.2428 5.06626 9.07697 5.9258 8.21743C6.78534 7.35789 7.95113 6.875 9.16671 6.875H45.8334C47.0489 6.875 48.2147 7.35789 49.0743 8.21743C49.9338 9.07697 50.4167 10.2428 50.4167 11.4583V34.375C50.4167 35.5906 49.9338 36.7564 49.0743 37.6159C48.2147 38.4754 47.0489 38.9583 45.8334 38.9583H43.5417" stroke="#1C1C1C" stroke-width="2" stroke-linecap="round" stroke-linejoin="round"/>
<path d="M27.5 34.375L38.9583 48.125H16.0416L27.5 34.375Z" stroke="#1C1C1C" stroke-width="2" stroke-linecap="round" stroke-linejoin="round"/>
</svg>
