<svg width="20" height="21" viewBox="0 0 20 21" fill="none" xmlns="http://www.w3.org/2000/svg">
<path d="M19.1666 3.00008C18.3686 3.56298 17.485 3.9935 16.5499 4.27508C16.048 3.698 15.381 3.28899 14.6391 3.10335C13.8972 2.91771 13.1162 2.96441 12.4017 3.23712C11.6871 3.50984 11.0736 3.99541 10.6441 4.62818C10.2145 5.26094 9.98967 6.01036 9.99992 6.77508V7.60841C8.53545 7.64639 7.08431 7.32159 5.77576 6.66295C4.46721 6.00431 3.34185 5.03228 2.49992 3.83341C2.49992 3.83341 -0.833415 11.3334 6.66659 14.6667C4.95036 15.8317 2.90588 16.4159 0.833252 16.3334C8.33325 20.5001 17.4999 16.3334 17.4999 6.75008C17.4992 6.51796 17.4768 6.28641 17.4333 6.05841C18.2838 5.21966 18.8839 4.16067 19.1666 3.00008V3.00008Z" stroke="#221638" stroke-width="1.5" stroke-linecap="round" stroke-linejoin="round"/>
</svg>
